<mxfile host="app.diagrams.net" modified="2022-10-20T07:31:17.040Z" agent="5.0 (Windows NT 10.0; WOW64) AppleWebKit/537.36 (KHTML, like Gecko) Chrome/86.0.4240.198 Safari/537.36" etag="gF2GXjpL4VNRlTN1-0zo" version="20.4.1" type="github">
  <diagram id="zs993jp3kKrHLNpkvuHx" name="第 1 页">
    <mxGraphModel dx="734" dy="429" grid="1" gridSize="10" guides="1" tooltips="1" connect="1" arrows="1" fold="1" page="1" pageScale="1" pageWidth="827" pageHeight="1169" math="0" shadow="0">
      <root>
        <mxCell id="0" />
        <mxCell id="1" parent="0" />
        <mxCell id="-6n8WZDABdm_WggOPDnz-1" value="&lt;p class=&quot;MsoNormal&quot;&gt;&lt;span style=&quot;font-family: 微软雅黑; font-size: 10.5pt;&quot;&gt;&lt;font face=&quot;Tahoma&quot;&gt;vcf&lt;/font&gt;&lt;font face=&quot;微软雅黑&quot;&gt;工具集&lt;/font&gt;&lt;/span&gt;&lt;/p&gt;" style="rounded=0;whiteSpace=wrap;html=1;" parent="1" vertex="1">
          <mxGeometry x="185" y="180" width="120" height="60" as="geometry" />
        </mxCell>
        <mxCell id="-6n8WZDABdm_WggOPDnz-2" value="fq工具集" style="rounded=0;whiteSpace=wrap;html=1;" parent="1" vertex="1">
          <mxGeometry x="185" y="110" width="120" height="60" as="geometry" />
        </mxCell>
        <mxCell id="-6n8WZDABdm_WggOPDnz-5" value="其它工具集" style="rounded=0;whiteSpace=wrap;html=1;" parent="1" vertex="1">
          <mxGeometry x="185" y="460" width="120" height="60" as="geometry" />
        </mxCell>
        <mxCell id="-6n8WZDABdm_WggOPDnz-6" value="&lt;p class=&quot;MsoNormal&quot;&gt;&lt;span style=&quot;font-family: 微软雅黑; font-size: 10.5pt;&quot;&gt;&lt;font face=&quot;Tahoma&quot;&gt;bed&lt;/font&gt;&lt;font face=&quot;微软雅黑&quot;&gt;工具集&lt;/font&gt;&lt;/span&gt;&lt;/p&gt;" style="rounded=0;whiteSpace=wrap;html=1;" parent="1" vertex="1">
          <mxGeometry x="185" y="250" width="120" height="60" as="geometry" />
        </mxCell>
        <mxCell id="-6n8WZDABdm_WggOPDnz-7" value="&lt;p class=&quot;MsoNormal&quot;&gt;&lt;span style=&quot;font-family: 微软雅黑; font-size: 10.5pt;&quot;&gt;&lt;font face=&quot;Tahoma&quot;&gt;json&lt;/font&gt;&lt;font face=&quot;微软雅黑&quot;&gt;工具集&lt;/font&gt;&lt;/span&gt;&lt;/p&gt;" style="rounded=0;whiteSpace=wrap;html=1;" parent="1" vertex="1">
          <mxGeometry x="185" y="320" width="120" height="60" as="geometry" />
        </mxCell>
        <mxCell id="-6n8WZDABdm_WggOPDnz-8" value="&lt;p class=&quot;MsoNormal&quot;&gt;&lt;span style=&quot;font-family: 微软雅黑; font-size: 10.5pt;&quot;&gt;&lt;font face=&quot;Tahoma&quot;&gt;csv&lt;/font&gt;&lt;font face=&quot;微软雅黑&quot;&gt;工具集&lt;/font&gt;&lt;/span&gt;&lt;/p&gt;" style="rounded=0;whiteSpace=wrap;html=1;" parent="1" vertex="1">
          <mxGeometry x="185" y="390" width="120" height="60" as="geometry" />
        </mxCell>
        <mxCell id="-6n8WZDABdm_WggOPDnz-10" value="" style="strokeWidth=2;html=1;shape=mxgraph.flowchart.annotation_2;align=left;labelPosition=right;pointerEvents=1;" parent="1" vertex="1">
          <mxGeometry x="135" y="140" width="50" height="360" as="geometry" />
        </mxCell>
        <mxCell id="-6n8WZDABdm_WggOPDnz-11" value="geneCloudToolkit" style="shape=ext;double=1;rounded=1;whiteSpace=wrap;html=1;" parent="1" vertex="1">
          <mxGeometry x="25" y="287.5" width="110" height="65" as="geometry" />
        </mxCell>
        <mxCell id="-6n8WZDABdm_WggOPDnz-13" value="&lt;p class=&quot;MsoNormal&quot;&gt;&lt;span style=&quot;font-family: 微软雅黑; font-size: 10.5pt;&quot;&gt;&lt;font face=&quot;微软雅黑&quot;&gt;包含数据格式检查、&lt;/font&gt;&lt;font face=&quot;微软雅黑&quot;&gt;合并、截取、去重、剔除、&lt;/font&gt;&lt;font face=&quot;微软雅黑&quot;&gt;过滤、&lt;/font&gt;&lt;font face=&quot;微软雅黑&quot;&gt;拆分、重命名&lt;/font&gt;&lt;font face=&quot;微软雅黑&quot;&gt;等18个小功能&lt;/font&gt;&lt;/span&gt;&lt;/p&gt;" style="rounded=0;whiteSpace=wrap;html=1;align=left;" parent="1" vertex="1">
          <mxGeometry x="370" y="110" width="260" height="60" as="geometry" />
        </mxCell>
        <mxCell id="-6n8WZDABdm_WggOPDnz-14" value="" style="endArrow=classic;html=1;rounded=0;" parent="1" edge="1">
          <mxGeometry width="50" height="50" relative="1" as="geometry">
            <mxPoint x="305" y="140" as="sourcePoint" />
            <mxPoint x="365" y="140" as="targetPoint" />
          </mxGeometry>
        </mxCell>
        <mxCell id="-6n8WZDABdm_WggOPDnz-15" value="" style="endArrow=classic;html=1;rounded=0;" parent="1" edge="1">
          <mxGeometry width="50" height="50" relative="1" as="geometry">
            <mxPoint x="305" y="209.5" as="sourcePoint" />
            <mxPoint x="365" y="209.5" as="targetPoint" />
          </mxGeometry>
        </mxCell>
        <mxCell id="-6n8WZDABdm_WggOPDnz-16" value="" style="endArrow=classic;html=1;rounded=0;" parent="1" edge="1">
          <mxGeometry width="50" height="50" relative="1" as="geometry">
            <mxPoint x="305" y="279.5" as="sourcePoint" />
            <mxPoint x="365" y="279.5" as="targetPoint" />
          </mxGeometry>
        </mxCell>
        <mxCell id="-6n8WZDABdm_WggOPDnz-17" value="" style="endArrow=classic;html=1;rounded=0;" parent="1" edge="1">
          <mxGeometry width="50" height="50" relative="1" as="geometry">
            <mxPoint x="305" y="349.5" as="sourcePoint" />
            <mxPoint x="365" y="349.5" as="targetPoint" />
          </mxGeometry>
        </mxCell>
        <mxCell id="-6n8WZDABdm_WggOPDnz-18" value="" style="endArrow=classic;html=1;rounded=0;" parent="1" edge="1">
          <mxGeometry width="50" height="50" relative="1" as="geometry">
            <mxPoint x="305" y="419.5" as="sourcePoint" />
            <mxPoint x="365" y="419.5" as="targetPoint" />
          </mxGeometry>
        </mxCell>
        <mxCell id="-6n8WZDABdm_WggOPDnz-19" value="" style="endArrow=classic;html=1;rounded=0;" parent="1" edge="1">
          <mxGeometry width="50" height="50" relative="1" as="geometry">
            <mxPoint x="305" y="489.5" as="sourcePoint" />
            <mxPoint x="365" y="489.5" as="targetPoint" />
          </mxGeometry>
        </mxCell>
        <mxCell id="-6n8WZDABdm_WggOPDnz-20" value="&lt;p class=&quot;MsoNormal&quot;&gt;&lt;span style=&quot;font-family: 微软雅黑; font-size: 10.5pt;&quot;&gt;&lt;font face=&quot;微软雅黑&quot;&gt;包含数据排序、去重、格式检查、建索引、注释、哈希注释&lt;/font&gt;&lt;font face=&quot;微软雅黑&quot;&gt;等6个小功能&lt;/font&gt;&lt;/span&gt;&lt;/p&gt;" style="rounded=0;whiteSpace=wrap;html=1;align=left;" parent="1" vertex="1">
          <mxGeometry x="370" y="180" width="260" height="60" as="geometry" />
        </mxCell>
        <mxCell id="-6n8WZDABdm_WggOPDnz-21" value="&lt;p class=&quot;MsoNormal&quot;&gt;&lt;span style=&quot;font-family: 微软雅黑; font-size: 10.5pt;&quot;&gt;&lt;font face=&quot;微软雅黑&quot;&gt;包含数据排序、合并、拆分、区间求长、makewindow&lt;/font&gt;&lt;font face=&quot;微软雅黑&quot;&gt;等5个小功能&lt;/font&gt;&lt;/span&gt;&lt;/p&gt;" style="rounded=0;whiteSpace=wrap;html=1;align=left;" parent="1" vertex="1">
          <mxGeometry x="370" y="250" width="260" height="60" as="geometry" />
        </mxCell>
        <mxCell id="-6n8WZDABdm_WggOPDnz-22" value="&lt;p class=&quot;MsoNormal&quot;&gt;&lt;span style=&quot;font-family: 微软雅黑; font-size: 10.5pt;&quot;&gt;&lt;font face=&quot;微软雅黑&quot;&gt;暂时仅包含&lt;/font&gt;&lt;/span&gt;&lt;font style=&quot;font-size: 10.5pt; background-color: initial;&quot; face=&quot;Tahoma&quot;&gt;pretty json&lt;/font&gt;&lt;font style=&quot;font-family: 微软雅黑; font-size: 10.5pt; background-color: initial;&quot; face=&quot;微软雅黑&quot;&gt;格式转换一个小&lt;/font&gt;&lt;span style=&quot;font-family: 微软雅黑; font-size: 10.5pt; background-color: initial;&quot;&gt;功能，其它功能待补充完善&lt;/span&gt;&lt;/p&gt;" style="rounded=0;whiteSpace=wrap;html=1;align=left;" parent="1" vertex="1">
          <mxGeometry x="370" y="330" width="260" height="60" as="geometry" />
        </mxCell>
        <mxCell id="-6n8WZDABdm_WggOPDnz-23" value="&lt;p class=&quot;MsoNormal&quot;&gt;&lt;span style=&quot;font-size: 10.5pt;&quot;&gt;&lt;font style=&quot;font-family: 微软雅黑;&quot; face=&quot;微软雅黑&quot;&gt;暂时仅包含&lt;/font&gt;&lt;font face=&quot;Tahoma&quot; style=&quot;&quot;&gt;barcode&lt;/font&gt;&lt;/span&gt;&lt;span style=&quot;font-family: 微软雅黑; font-size: 10.5pt; background-color: initial;&quot;&gt;编辑距离与汉明距离计算&lt;/span&gt;&lt;font style=&quot;background-color: initial; font-family: 微软雅黑; font-size: 10.5pt;&quot; face=&quot;微软雅黑&quot;&gt;一个小&lt;/font&gt;&lt;span style=&quot;background-color: initial; font-family: 微软雅黑; font-size: 10.5pt;&quot;&gt;功能，其它功能待补充完善&lt;/span&gt;&lt;/p&gt;" style="rounded=0;whiteSpace=wrap;html=1;align=left;" parent="1" vertex="1">
          <mxGeometry x="370" y="400" width="260" height="60" as="geometry" />
        </mxCell>
        <mxCell id="-6n8WZDABdm_WggOPDnz-24" value="&lt;p class=&quot;MsoNormal&quot;&gt;&lt;span style=&quot;font-family: 微软雅黑; font-size: 10.5pt;&quot;&gt;&lt;font face=&quot;微软雅黑&quot;&gt;暂时仅包含&lt;/font&gt;&lt;/span&gt;&lt;span style=&quot;font-family: 微软雅黑; font-size: 10.5pt; background-color: initial;&quot;&gt;多线程同步与序列比较两&lt;/span&gt;&lt;font style=&quot;background-color: initial; font-family: 微软雅黑; font-size: 10.5pt;&quot; face=&quot;微软雅黑&quot;&gt;个小&lt;/font&gt;&lt;span style=&quot;background-color: initial; font-family: 微软雅黑; font-size: 10.5pt;&quot;&gt;功能，其它功能待补充完善&lt;/span&gt;&lt;/p&gt;" style="rounded=0;whiteSpace=wrap;html=1;align=left;" parent="1" vertex="1">
          <mxGeometry x="370" y="470" width="260" height="60" as="geometry" />
        </mxCell>
      </root>
    </mxGraphModel>
  </diagram>
</mxfile>
